<mxfile host="app.diagrams.net" modified="2023-02-23T12:08:50.518Z" agent="5.0 (Windows)" etag="4WEoBABSYLCFG6vvjP9e" version="20.8.23" type="github">
  <diagram id="C5RBs43oDa-KdzZeNtuy" name="Page-1">
    <mxGraphModel dx="1434" dy="782" grid="1" gridSize="10" guides="1" tooltips="1" connect="1" arrows="1" fold="1" page="1" pageScale="1" pageWidth="827" pageHeight="1169" math="0" shadow="0">
      <root>
        <mxCell id="WIyWlLk6GJQsqaUBKTNV-0" />
        <mxCell id="WIyWlLk6GJQsqaUBKTNV-1" parent="WIyWlLk6GJQsqaUBKTNV-0" />
        <mxCell id="0BIkixSw7kdEACId5EGx-2" style="edgeStyle=orthogonalEdgeStyle;rounded=0;orthogonalLoop=1;jettySize=auto;html=1;" edge="1" parent="WIyWlLk6GJQsqaUBKTNV-1" source="0BIkixSw7kdEACId5EGx-0" target="0BIkixSw7kdEACId5EGx-1">
          <mxGeometry relative="1" as="geometry" />
        </mxCell>
        <mxCell id="0BIkixSw7kdEACId5EGx-0" value="start" style="ellipse;whiteSpace=wrap;html=1;" vertex="1" parent="WIyWlLk6GJQsqaUBKTNV-1">
          <mxGeometry x="354" y="20" width="120" height="80" as="geometry" />
        </mxCell>
        <mxCell id="0BIkixSw7kdEACId5EGx-4" style="edgeStyle=orthogonalEdgeStyle;rounded=0;orthogonalLoop=1;jettySize=auto;html=1;entryX=0.5;entryY=0;entryDx=0;entryDy=0;" edge="1" parent="WIyWlLk6GJQsqaUBKTNV-1" source="0BIkixSw7kdEACId5EGx-1" target="0BIkixSw7kdEACId5EGx-3">
          <mxGeometry relative="1" as="geometry" />
        </mxCell>
        <mxCell id="0BIkixSw7kdEACId5EGx-1" value="pobierz &quot;a&quot;" style="rounded=0;whiteSpace=wrap;html=1;" vertex="1" parent="WIyWlLk6GJQsqaUBKTNV-1">
          <mxGeometry x="354" y="150" width="120" height="60" as="geometry" />
        </mxCell>
        <mxCell id="0BIkixSw7kdEACId5EGx-7" style="edgeStyle=orthogonalEdgeStyle;rounded=0;orthogonalLoop=1;jettySize=auto;html=1;entryX=1;entryY=0.5;entryDx=0;entryDy=0;" edge="1" parent="WIyWlLk6GJQsqaUBKTNV-1" source="0BIkixSw7kdEACId5EGx-3" target="0BIkixSw7kdEACId5EGx-5">
          <mxGeometry relative="1" as="geometry" />
        </mxCell>
        <mxCell id="0BIkixSw7kdEACId5EGx-8" style="edgeStyle=orthogonalEdgeStyle;rounded=0;orthogonalLoop=1;jettySize=auto;html=1;exitX=1;exitY=0.5;exitDx=0;exitDy=0;" edge="1" parent="WIyWlLk6GJQsqaUBKTNV-1" source="0BIkixSw7kdEACId5EGx-3" target="0BIkixSw7kdEACId5EGx-6">
          <mxGeometry relative="1" as="geometry" />
        </mxCell>
        <mxCell id="0BIkixSw7kdEACId5EGx-3" value="a&amp;gt;0" style="rhombus;whiteSpace=wrap;html=1;" vertex="1" parent="WIyWlLk6GJQsqaUBKTNV-1">
          <mxGeometry x="374" y="260" width="80" height="80" as="geometry" />
        </mxCell>
        <mxCell id="0BIkixSw7kdEACId5EGx-12" style="edgeStyle=orthogonalEdgeStyle;rounded=0;orthogonalLoop=1;jettySize=auto;html=1;entryX=0.025;entryY=0.613;entryDx=0;entryDy=0;entryPerimeter=0;exitX=0.192;exitY=1.033;exitDx=0;exitDy=0;exitPerimeter=0;" edge="1" parent="WIyWlLk6GJQsqaUBKTNV-1" source="0BIkixSw7kdEACId5EGx-5" target="0BIkixSw7kdEACId5EGx-11">
          <mxGeometry relative="1" as="geometry">
            <mxPoint x="270" y="510" as="targetPoint" />
            <Array as="points">
              <mxPoint x="233" y="510" />
              <mxPoint x="310" y="510" />
              <mxPoint x="310" y="509" />
            </Array>
          </mxGeometry>
        </mxCell>
        <mxCell id="0BIkixSw7kdEACId5EGx-5" value="wyswietl a" style="rounded=0;whiteSpace=wrap;html=1;" vertex="1" parent="WIyWlLk6GJQsqaUBKTNV-1">
          <mxGeometry x="210" y="270" width="120" height="60" as="geometry" />
        </mxCell>
        <mxCell id="0BIkixSw7kdEACId5EGx-14" style="edgeStyle=orthogonalEdgeStyle;rounded=0;orthogonalLoop=1;jettySize=auto;html=1;" edge="1" parent="WIyWlLk6GJQsqaUBKTNV-1" source="0BIkixSw7kdEACId5EGx-6">
          <mxGeometry relative="1" as="geometry">
            <mxPoint x="280" y="330" as="targetPoint" />
            <Array as="points">
              <mxPoint x="570" y="410" />
              <mxPoint x="280" y="410" />
              <mxPoint x="280" y="330" />
            </Array>
          </mxGeometry>
        </mxCell>
        <mxCell id="0BIkixSw7kdEACId5EGx-6" value="pomnoz a razy -1" style="rounded=0;whiteSpace=wrap;html=1;" vertex="1" parent="WIyWlLk6GJQsqaUBKTNV-1">
          <mxGeometry x="510" y="270" width="120" height="60" as="geometry" />
        </mxCell>
        <mxCell id="0BIkixSw7kdEACId5EGx-9" value="tak" style="text;html=1;align=center;verticalAlign=middle;resizable=0;points=[];autosize=1;strokeColor=none;fillColor=none;" vertex="1" parent="WIyWlLk6GJQsqaUBKTNV-1">
          <mxGeometry x="334" y="270" width="40" height="30" as="geometry" />
        </mxCell>
        <mxCell id="0BIkixSw7kdEACId5EGx-10" value="nie" style="text;html=1;align=center;verticalAlign=middle;resizable=0;points=[];autosize=1;strokeColor=none;fillColor=none;" vertex="1" parent="WIyWlLk6GJQsqaUBKTNV-1">
          <mxGeometry x="460" y="270" width="40" height="30" as="geometry" />
        </mxCell>
        <mxCell id="0BIkixSw7kdEACId5EGx-11" value="STOP" style="ellipse;whiteSpace=wrap;html=1;" vertex="1" parent="WIyWlLk6GJQsqaUBKTNV-1">
          <mxGeometry x="350" y="460" width="120" height="80" as="geometry" />
        </mxCell>
      </root>
    </mxGraphModel>
  </diagram>
</mxfile>
